<?xml version="1.0" standalone="no"?>
<!DOCTYPE svg PUBLIC "-//W3C//DTD SVG 20010904//EN"
 "http://www.w3.org/TR/2001/REC-SVG-20010904/DTD/svg10.dtd">
<svg version="1.0" xmlns="http://www.w3.org/2000/svg"
 width="1514.000000pt" height="1514.000000pt" viewBox="0 0 1514.000000 1514.000000"
 preserveAspectRatio="xMidYMid meet">
<metadata>
Created by potrace 1.14, written by Peter Selinger 2001-2017
</metadata>
<g transform="translate(0.000000,1514.000000) scale(0.100000,-0.100000)"
fill="#000000" stroke="none">
<path d="M7348 14795 c-2 -1 -73 -5 -158 -9 -85 -4 -171 -8 -190 -10 -19 -2
-69 -7 -110 -11 -41 -3 -88 -8 -105 -10 -16 -2 -57 -6 -90 -10 -33 -3 -71 -8
-85 -10 -14 -2 -45 -7 -70 -10 -56 -8 -95 -14 -225 -36 -83 -14 -352 -68 -400
-81 -22 -5 -47 -11 -55 -13 -51 -11 -303 -80 -400 -110 -63 -20 -122 -37 -130
-40 -47 -12 -390 -136 -445 -160 -63 -28 -210 -90 -215 -91 -34 -5 -465 -220
-645 -321 -246 -139 -558 -339 -710 -455 -5 -5 -69 -53 -141 -107 -147 -111
-134 -100 -299 -241 -151 -128 -207 -180 -375 -345 -198 -194 -317 -321 -477
-513 -130 -155 -320 -404 -416 -545 -84 -122 -247 -375 -247 -383 0 -3 -8 -18
-19 -32 -20 -29 -59 -98 -147 -259 -38 -70 -166 -325 -209 -418 -119 -257
-312 -770 -351 -930 -1 -5 -14 -50 -29 -100 -23 -80 -103 -400 -119 -480 -4
-16 -9 -41 -12 -55 -2 -14 -11 -61 -19 -105 -8 -44 -17 -91 -20 -105 -7 -34
-23 -135 -30 -190 -3 -25 -8 -63 -11 -85 -11 -80 -13 -91 -19 -150 -3 -33 -8
-78 -11 -100 -21 -172 -29 -377 -28 -725 0 -352 6 -494 29 -711 3 -30 7 -72 9
-94 5 -48 16 -131 22 -165 6 -37 17 -112 19 -135 1 -11 5 -38 9 -60 10 -57 36
-195 41 -225 3 -14 8 -38 11 -55 3 -16 14 -70 25 -120 12 -49 22 -97 24 -106
2 -10 20 -79 40 -155 81 -307 181 -610 298 -895 55 -134 70 -169 129 -299 75
-162 234 -469 300 -579 21 -34 38 -64 38 -66 0 -14 349 -546 370 -565 3 -3 30
-39 60 -80 30 -41 60 -82 67 -90 7 -8 52 -64 100 -125 48 -60 92 -115 98 -121
5 -6 30 -35 55 -64 25 -29 53 -62 63 -74 150 -174 433 -454 657 -651 168 -148
491 -405 509 -405 5 0 11 -4 13 -8 5 -14 355 -252 369 -252 5 0 9 -4 9 -9 0
-5 8 -11 18 -14 18 -6 73 -38 82 -48 6 -6 183 -109 282 -164 165 -92 483 -246
688 -332 19 -8 44 -19 55 -24 11 -5 45 -18 75 -29 30 -11 64 -25 75 -30 67
-31 423 -149 595 -199 106 -30 441 -113 515 -127 22 -4 45 -8 50 -10 39 -9
235 -43 285 -50 19 -2 42 -6 50 -9 8 -2 40 -7 70 -10 30 -3 62 -8 70 -10 8 -2
44 -7 80 -10 36 -4 79 -9 95 -11 17 -2 68 -6 115 -10 47 -3 96 -8 110 -10 151
-24 795 -24 1130 1 60 4 88 7 220 21 52 5 116 13 151 18 36 6 120 18 159 22
30 4 74 11 165 28 31 5 97 17 125 23 13 2 56 11 95 19 38 9 81 18 95 20 117
23 530 136 640 175 30 11 62 22 70 24 89 20 504 184 725 285 141 64 499 247
530 270 6 5 27 17 48 29 146 82 243 143 422 262 191 128 395 279 562 415 123
102 154 129 297 257 162 146 493 485 592 607 16 19 37 44 47 55 124 133 485
624 604 820 6 11 38 63 71 115 32 52 62 102 66 110 4 8 12 24 19 35 68 113
327 616 327 637 0 3 15 39 34 80 133 289 328 864 391 1156 2 9 20 87 39 172
19 85 38 171 41 190 3 19 7 46 10 60 3 14 7 39 10 55 3 17 7 39 9 50 2 11 7
42 10 68 4 27 9 58 11 69 3 11 7 46 11 77 3 31 8 58 9 61 2 3 6 39 10 80 3 41
8 86 10 100 2 14 6 59 10 100 3 41 8 95 10 120 22 251 22 807 -1 1080 -6 79
-24 261 -29 290 -4 32 -13 102 -20 165 -4 28 -8 57 -10 65 -4 13 -7 35 -20
125 -4 30 -24 147 -29 170 -2 11 -14 67 -26 125 -91 448 -248 941 -440 1385
-74 169 -232 492 -301 615 -224 396 -423 694 -682 1020 -36 46 -142 176 -147
180 -3 3 -35 39 -70 80 -100 114 -182 201 -341 360 -139 139 -170 168 -325
307 -417 373 -994 764 -1514 1024 -165 83 -371 179 -384 179 -7 0 -16 4 -22 9
-18 17 -367 151 -554 214 -174 58 -478 146 -558 162 -9 1 -37 8 -62 15 -53 14
-31 10 -250 54 -192 39 -269 52 -345 61 -27 4 -57 8 -65 11 -8 2 -40 6 -70 9
-30 3 -66 7 -80 10 -14 2 -54 6 -90 10 -36 4 -76 8 -90 10 -14 2 -70 7 -125
10 -55 3 -122 8 -150 11 -54 5 -632 13 -637 9z"/>
</g>
</svg>
